<?xml version="1.0" encoding="UTF-8" standalone="no"?>
<!-- Created with Inkscape (http://www.inkscape.org/) -->

<svg
   xmlns:dc="http://purl.org/dc/elements/1.1/"
   xmlns:cc="http://creativecommons.org/ns#"
   xmlns:rdf="http://www.w3.org/1999/02/22-rdf-syntax-ns#"
   xmlns:svg="http://www.w3.org/2000/svg"
   xmlns="http://www.w3.org/2000/svg"
   xmlns:sodipodi="http://sodipodi.sourceforge.net/DTD/sodipodi-0.dtd"
   xmlns:inkscape="http://www.inkscape.org/namespaces/inkscape"
   width="297mm"
   height="210mm"
   viewBox="0 0 1052.3622 744.09448"
   id="svg2"
   version="1.1"
   inkscape:version="0.91 r13725"
   inkscape:export-filename="C:\Users\Dave\Desktop\text4181.png"
   inkscape:export-xdpi="400"
   inkscape:export-ydpi="400"
   sodipodi:docname="LDO Logo.svg">
  <defs
     id="defs4">
    <pattern
       y="0"
       x="0"
       height="6"
       width="6"
       patternUnits="userSpaceOnUse"
       id="EMFhbasepattern" />
    <pattern
       y="0"
       x="0"
       height="6"
       width="6"
       patternUnits="userSpaceOnUse"
       id="EMFhbasepattern-6" />
  </defs>
  <sodipodi:namedview
     id="base"
     pagecolor="#ffffff"
     bordercolor="#666666"
     borderopacity="1.0"
     inkscape:pageopacity="0.0"
     inkscape:pageshadow="2"
     inkscape:zoom="0.7"
     inkscape:cx="353.40706"
     inkscape:cy="460.51595"
     inkscape:document-units="px"
     inkscape:current-layer="layer1"
     showgrid="false"
     inkscape:window-width="1920"
     inkscape:window-height="1028"
     inkscape:window-x="1358"
     inkscape:window-y="-8"
     inkscape:window-maximized="1" />
  <metadata
     id="metadata7">
    <rdf:RDF>
      <cc:Work
         rdf:about="">
        <dc:format>image/svg+xml</dc:format>
        <dc:type
           rdf:resource="http://purl.org/dc/dcmitype/StillImage" />
        <dc:title></dc:title>
      </cc:Work>
    </rdf:RDF>
  </metadata>
  <g
     inkscape:label="Layer 1"
     inkscape:groupmode="layer"
     id="layer1"
     transform="translate(0,-308.26772)">
    <path
       style="fill:#326799;fill-opacity:1"
       d="m 239.75849,734.63799 -9.88003,-10.11538 -0.17643,-39.95927 -0.17643,-39.95928 41.6373,0.0202 41.63729,0.0202 10.14469,10.45502 10.14468,10.45502 0,39.63501 0,39.635 -41.72552,-0.0355 -41.72551,-0.0355 -9.88004,-10.11538 z m 64.33433,-1.94428 c -0.0627,-0.26696 -2.31763,-2.80776 -5.01084,-5.64621 l -4.89676,-5.16081 -15.91748,0 -15.91748,0 -5.03264,-5.0241 -5.03265,-5.02409 0,-16.25195 0,-16.25197 -5.32252,-5.54347 c -2.92739,-3.04891 -5.46797,-5.54347 -5.64574,-5.54347 -0.19269,0 -0.31764,9.72592 -0.30942,24.08464 l 0.0138,24.08464 8.19017,8.38533 8.19016,8.38533 23.40274,-0.004 c 19.67954,-0.004 23.3846,-0.0814 23.28866,-0.48963 z m 17.24771,-29.68655 0.0717,-29.99553 -8.21418,-8.3811 -8.21419,-8.38109 -31.9952,0 -31.9952,0 0,3.45803 0,3.45804 8.90967,9.11293 8.90968,9.11293 1.8298,-2.29595 c 1.00639,-1.26277 2.79469,-3.05407 3.974,-3.98067 l 2.1442,-1.68472 -2.38614,-2.50297 c -1.31237,-1.37664 -2.58462,-2.62997 -2.82721,-2.78518 -0.24259,-0.15521 -0.44107,-0.43311 -0.44107,-0.61755 0,-0.2078 7.34997,-0.33536 19.32341,-0.33536 l 19.32342,0 5.20024,5.20938 5.20026,5.20938 -0.0138,20.11038 -0.0138,20.11036 -4.02921,-4.14644 c -2.2161,-2.28054 -4.16522,-4.14644 -4.3314,-4.14644 -0.16619,0 -0.84773,0.73182 -1.51454,1.62626 -1.10783,1.48603 -4.55307,4.64217 -5.87504,5.38205 -0.29976,0.16776 -0.48479,0.48194 -0.41118,0.69817 0.0736,0.21622 3.62267,3.8942 7.8868,8.17327 l 7.75297,7.78013 5.83208,-0.0964 5.83209,-0.0964 0.0717,-29.99551 z m -37.76491,13.9115 c 8.29003,-1.14274 15.09098,-6.95664 17.92453,-15.32306 0.80936,-2.38975 1.08608,-7.58697 0.56369,-10.58701 -1.37195,-7.87903 -8.19716,-15.14992 -16.25732,-17.31894 -5.05636,-1.36068 -11.82673,-0.39371 -16.43826,2.34776 -3.39097,2.01588 -6.84507,5.7404 -8.50957,9.17581 -1.77217,3.6576 -2.22475,5.72989 -2.21364,10.13598 0.0108,4.29056 0.36803,5.87142 2.13954,9.46852 3.16907,6.43485 9.72981,11.26441 16.47845,12.13027 3.00249,0.38523 3.31572,0.38377 6.31258,-0.0293 z m -6.76699,-11.36026 c -2.16858,-0.89225 -3.30991,-1.68916 -4.73003,-3.30265 -1.88899,-2.14618 -2.64654,-4.65823 -2.42546,-8.04279 0.27378,-4.19124 2.32251,-7.22515 6.09483,-9.02567 4.18922,-1.99951 9.09677,-1.18574 12.32614,2.04391 2.46912,2.46933 3.19301,4.2432 3.19776,7.83597 0.004,2.62642 -0.12552,3.25512 -1.03695,5.05405 -1.14033,2.25074 -2.5899,3.70286 -4.87928,4.88787 -1.7935,0.92833 -6.83787,1.25252 -8.54701,0.54931 z"
       id="path4187"
       inkscape:connector-curvature="0"
       inkscape:export-xdpi="400"
       inkscape:export-ydpi="400" />
    <text
       xml:space="preserve"
       style="font-style:normal;font-variant:normal;font-weight:bold;font-stretch:normal;font-size:62.5px;line-height:125%;font-family:'Open Sans';-inkscape-font-specification:'Open Sans, Bold';text-align:start;letter-spacing:0px;word-spacing:0px;writing-mode:lr-tb;text-anchor:start;fill:#336799;fill-opacity:1;stroke:none;stroke-width:1px;stroke-linecap:butt;stroke-linejoin:miter;stroke-opacity:1"
       x="340.83682"
       y="720.24036"
       id="text4149"
       sodipodi:linespacing="125%"
       inkscape:export-xdpi="400"
       inkscape:export-ydpi="400"><tspan
         sodipodi:role="line"
         id="tspan4151"
         x="340.83682"
         y="720.24036">LDO MOTORS</tspan></text>
    <text
       sodipodi:linespacing="125%"
       id="text4164"
       y="185.0621"
       x="203.04135"
       style="font-style:normal;font-variant:normal;font-weight:400;font-size:13.75px;line-height:125%;font-family:Calibri;text-align:start;letter-spacing:0px;word-spacing:0px;text-anchor:start;fill:#000000;fill-opacity:1;stroke:none"
       xml:space="preserve"><tspan
         id="tspan4166"
         y="0"
         x="0"
         sodipodi:role="line"><tspan
           id="tspan4168"
           style="font-style:normal;font-variant:normal;font-weight:400;font-size:13.75px;font-family:Calibri;fill:#000000"
           dy="0"
           dx="0" /></tspan></text>
    <text
       xml:space="preserve"
       style="font-style:normal;font-variant:normal;font-weight:normal;font-stretch:normal;font-size:25px;line-height:125%;font-family:'Open Sans';-inkscape-font-specification:'Open Sans, Normal';text-align:start;letter-spacing:0px;word-spacing:0px;writing-mode:lr-tb;text-anchor:start;fill:#336799;fill-opacity:1;stroke:none;stroke-width:1px;stroke-linecap:butt;stroke-linejoin:miter;stroke-opacity:1"
       x="756.91016"
       y="675.4137"
       id="text4181"
       sodipodi:linespacing="125%"
       inkscape:export-xdpi="400"
       inkscape:export-ydpi="400"><tspan
         sodipodi:role="line"
         id="tspan4185"
         x="756.91016"
         y="675.4137">®</tspan></text>
  </g>
</svg>
